<svg xmlns="http://www.w3.org/2000/svg" viewBox="0 0 1200 900">
  <defs>
    <linearGradient id="grad-hero" x1="0%" y1="0%" x2="100%" y2="100%">
      <stop offset="0%" stop-color="#070B16" />
      <stop offset="100%" stop-color="#1B2A4B" />
    </linearGradient>
    <linearGradient id="accent-hero" x1="0%" y1="0%" x2="100%" y2="0%">
      <stop offset="0%" stop-color="#00C2FF" />
      <stop offset="100%" stop-color="#7B61FF" />
    </linearGradient>
    <linearGradient id="glow" x1="0%" y1="0%" x2="0%" y2="100%">
      <stop offset="0%" stop-color="#7B61FF" stop-opacity="0.8" />
      <stop offset="100%" stop-color="#00C2FF" stop-opacity="0" />
    </linearGradient>
    <radialGradient id="pulse" cx="70%" cy="30%" r="40%">
      <stop offset="0%" stop-color="#A1E8FF" stop-opacity="0.4" />
      <stop offset="100%" stop-color="#A1E8FF" stop-opacity="0" />
    </radialGradient>
  </defs>
  <rect width="1200" height="900" fill="url(#grad-hero)" />
  <rect width="1200" height="900" fill="url(#pulse)" />
  <g opacity="0.15" stroke="#2A3F68" stroke-width="2">
    <path d="M160 140h880M160 220h880M160 300h880M160 380h880M160 460h880M160 540h880M160 620h880M160 700h880" />
    <path d="M240 80v720M360 80v720M480 80v720M600 80v720M720 80v720M840 80v720M960 80v720" />
  </g>
  <g transform="translate(200 220)">
    <path d="M180 100c0-88 72-160 160-160s160 72 160 160c0 88-72 200-160 200s-160-112-160-200z" fill="rgba(0,194,255,0.18)" />
    <path d="M420 70c0 55-45 90-110 90s-110-35-110-90 45-110 110-110 110 55 110 110z" fill="rgba(255,255,255,0.25)" />
    <circle cx="310" cy="140" r="95" fill="#F4F8FF" />
    <rect x="270" y="60" width="80" height="90" rx="40" fill="#D0D9FF" />
    <rect x="260" y="140" width="100" height="150" rx="50" fill="#F4F8FF" />
    <path d="M210 270c30-40 80-40 100-10s70 30 100-20" fill="none" stroke="url(#accent-hero)" stroke-width="24" stroke-linecap="round" />
    <circle cx="465" cy="50" r="18" fill="#00E0FF" />
    <circle cx="130" cy="120" r="10" fill="#00E0FF" />
  </g>
  <g transform="translate(640 260)">
    <rect x="40" y="40" width="280" height="80" rx="40" fill="rgba(0,194,255,0.15)" />
    <rect x="60" y="60" width="240" height="40" rx="20" fill="url(#accent-hero)" />
    <rect x="0" y="170" width="360" height="180" rx="24" fill="rgba(123,97,255,0.15)" />
    <rect x="40" y="210" width="280" height="32" rx="16" fill="rgba(255,255,255,0.6)" />
    <rect x="40" y="260" width="280" height="32" rx="16" fill="rgba(255,255,255,0.35)" />
    <rect x="40" y="310" width="180" height="32" rx="16" fill="rgba(255,255,255,0.2)" />
    <circle cx="320" cy="90" r="18" fill="#7B61FF" />
    <circle cx="20" cy="150" r="12" fill="#7B61FF" />
  </g>
  <path d="M1200 900H0l180-90c120-60 240-90 360-90s240 30 360 90z" fill="url(#glow)" />
</svg>
